<?xml version="1.0" encoding="UTF-8" standalone="no"?>
<svg
   xmlns:dc="http://purl.org/dc/elements/1.1/"
   xmlns:cc="http://creativecommons.org/ns#"
   xmlns:rdf="http://www.w3.org/1999/02/22-rdf-syntax-ns#"
   xmlns:svg="http://www.w3.org/2000/svg"
   xmlns="http://www.w3.org/2000/svg"
   id="svg5087"
   version="1.1"
   viewBox="0 0 0.97895832 0.71437503"
   height="2.7"
   width="3.7">
  <defs
     id="defs5081" />
  <metadata
     id="metadata5084">
    <rdf:RDF>
      <cc:Work
         rdf:about="">
        <dc:format>image/svg+xml</dc:format>
        <dc:type
           rdf:resource="http://purl.org/dc/dcmitype/StillImage" />
        <dc:title></dc:title>
      </cc:Work>
    </rdf:RDF>
  </metadata>
  <g
     transform="translate(0,-296.28561)"
     id="layer1">
    <g
       transform="matrix(0.26458333,0,0,0.26458333,-0.16889049,295.98119)"
       id="g4">
      <path
         id="path2"
         d="M 4.288,2.013 4.278,1.985 4.251,1.976 C 4.245,1.975 4.118,1.94 3.929,1.933 3.868,1.72 3.779,1.591 3.777,1.588 L 3.759,1.563 H 3.728 C 3.712,1.563 3.585,1.564 3.406,1.608 3.294,1.417 3.171,1.317 3.171,1.313 L 3.146,1.294 3.118,1.303 C 3.104,1.307 2.979,1.339 2.817,1.428 2.678,1.289 2.555,1.218 2.544,1.211 L 2.517,1.197 2.493,1.209 C 2.485,1.21 2.343,1.275 2.184,1.428 2.024,1.339 1.899,1.306 1.885,1.303 L 1.856,1.294 1.835,1.313 C 1.827,1.319 1.708,1.417 1.595,1.608 1.419,1.565 1.29,1.563 1.276,1.563 H 1.245 L 1.228,1.587 C 1.222,1.595 1.134,1.721 1.075,1.933 0.884,1.94 0.759,1.975 0.751,1.976 L 0.724,1.985 0.714,2.013 C 0.71,2.021 0.644,2.207 0.657,2.478 0.673,2.726 0.766,3.094 1.124,3.442 1.358,3.67 1.646,3.803 1.909,3.803 c 0.191,0 0.424,-0.165 0.594,-0.165 0.166,0 0.4,0.165 0.59,0.165 v 0 C 3.359,3.803 3.644,3.671 3.88,3.442 4.563,2.775 4.292,2.02 4.288,2.013 Z M 3.698,1.683 C 3.721,1.723 3.77,1.812 3.807,1.935 3.729,1.936 3.645,1.947 3.555,1.965 3.532,1.872 3.498,1.789 3.463,1.715 3.571,1.691 3.655,1.685 3.698,1.683 Z M 3.44,1.99 C 3.368,2.011 3.292,2.04 3.216,2.075 3.188,1.988 3.157,1.909 3.118,1.834 3.198,1.796 3.276,1.766 3.348,1.745 3.386,1.816 3.417,1.898 3.44,1.99 Z M 3.118,1.426 C 3.153,1.459 3.22,1.53 3.29,1.642 3.218,1.664 3.142,1.693 3.062,1.733 3.013,1.652 2.958,1.581 2.903,1.518 2.997,1.468 3.079,1.438 3.118,1.426 Z M 3.108,2.132 C 3.04,2.17 2.974,2.217 2.907,2.272 2.878,2.189 2.846,2.113 2.807,2.043 2.873,1.982 2.942,1.932 3.014,1.89 3.052,1.966 3.083,2.045 3.108,2.132 Z M 2.956,1.791 C 2.886,1.832 2.813,1.88 2.747,1.94 2.698,1.863 2.646,1.796 2.589,1.736 2.659,1.673 2.73,1.62 2.796,1.578 2.851,1.64 2.905,1.709 2.956,1.791 Z M 2.659,2.023 C 2.603,2.08 2.55,2.143 2.503,2.215 2.452,2.143 2.399,2.08 2.345,2.023 2.394,1.947 2.446,1.879 2.503,1.82 2.558,1.879 2.61,1.947 2.659,2.023 Z M 2.513,1.329 C 2.55,1.355 2.626,1.407 2.712,1.49 2.644,1.534 2.571,1.587 2.503,1.652 2.433,1.588 2.358,1.534 2.288,1.489 2.384,1.402 2.47,1.352 2.513,1.329 Z M 2.202,1.577 C 2.271,1.619 2.345,1.67 2.415,1.736 2.36,1.796 2.304,1.863 2.255,1.94 2.188,1.88 2.12,1.832 2.048,1.791 2.097,1.708 2.147,1.636 2.202,1.577 Z M 2.177,3.279 C 1.991,3.123 1.874,2.839 1.874,2.499 1.874,2.417 1.878,2.339 1.888,2.267 1.947,2.305 2.005,2.348 2.062,2.398 1.979,2.741 2.03,3.061 2.177,3.279 Z M 1.913,2.141 C 1.935,2.05 1.962,1.969 1.997,1.895 2.063,1.937 2.132,1.985 2.196,2.044 2.159,2.113 2.124,2.189 2.099,2.272 2.036,2.223 1.976,2.179 1.913,2.141 Z M 1.884,1.426 C 1.927,1.438 2.005,1.468 2.101,1.518 2.048,1.577 1.997,1.648 1.947,1.735 1.867,1.695 1.787,1.664 1.713,1.64 1.78,1.53 1.851,1.459 1.884,1.426 Z M 1.651,1.744 C 1.728,1.766 1.81,1.797 1.894,1.839 1.858,1.912 1.829,1.993 1.806,2.083 1.722,2.044 1.64,2.013 1.56,1.99 1.583,1.898 1.616,1.814 1.651,1.744 Z M 1.306,1.683 C 1.349,1.685 1.433,1.692 1.538,1.714 1.503,1.786 1.472,1.869 1.448,1.964 1.358,1.944 1.272,1.936 1.194,1.934 1.231,1.81 1.282,1.723 1.306,1.683 Z M 1.909,3.685 C 1.677,3.685 1.421,3.565 1.204,3.357 0.644,2.81 0.774,2.219 0.813,2.082 0.856,2.073 0.94,2.058 1.046,2.053 1.003,2.298 1.003,2.663 1.247,3.074 1.456,3.431 1.782,3.654 2.097,3.657 2.04,3.674 1.976,3.685 1.909,3.685 Z M 2.103,3.539 C 1.828,3.539 1.539,3.338 1.347,3.015 1.124,2.631 1.114,2.293 1.165,2.05 1.243,2.052 1.329,2.061 1.421,2.078 1.39,2.268 1.392,2.493 1.462,2.753 1.573,3.159 1.829,3.454 2.128,3.538 2.12,3.539 2.112,3.539 2.103,3.539 Z M 1.577,2.722 C 1.511,2.486 1.507,2.28 1.534,2.106 1.616,2.128 1.696,2.16 1.78,2.203 1.762,2.293 1.755,2.392 1.755,2.498 1.755,2.925 1.931,3.275 2.193,3.433 1.919,3.375 1.679,3.104 1.577,2.722 Z M 2.161,2.496 C 2.21,2.552 2.255,2.609 2.292,2.668 2.237,2.888 2.247,3.102 2.321,3.273 2.165,3.1 2.103,2.814 2.161,2.496 Z M 2.192,2.361 C 2.218,2.276 2.249,2.2 2.284,2.131 2.337,2.188 2.388,2.252 2.432,2.325 2.394,2.391 2.364,2.458 2.337,2.526 2.296,2.469 2.247,2.413 2.192,2.361 Z m 0.25,0.887 c 0,10e-4 0,0.003 0,0.005 C 2.381,3.135 2.364,2.989 2.381,2.833 2.411,2.906 2.433,2.979 2.444,3.05 2.435,3.118 2.435,3.184 2.442,3.248 Z M 2.421,2.649 C 2.441,2.582 2.468,2.514 2.503,2.446 2.534,2.513 2.564,2.581 2.583,2.649 2.55,2.705 2.522,2.762 2.503,2.819 2.479,2.762 2.452,2.705 2.421,2.649 Z m 0.141,0.604 c 0,-0.002 0,-0.003 0,-0.005 C 2.57,3.184 2.57,3.118 2.562,3.05 2.572,2.979 2.591,2.906 2.623,2.833 2.642,2.989 2.62,3.135 2.562,3.253 Z M 2.569,2.325 C 2.616,2.252 2.667,2.188 2.717,2.131 2.755,2.2 2.784,2.276 2.81,2.361 2.755,2.413 2.706,2.469 2.665,2.526 2.64,2.458 2.608,2.391 2.569,2.325 Z M 2.712,2.668 C 2.749,2.608 2.792,2.551 2.843,2.496 2.901,2.814 2.837,3.1 2.681,3.274 2.755,3.102 2.767,2.888 2.712,2.668 Z M 2.94,2.397 C 3.005,2.34 3.069,2.292 3.136,2.251 3.152,2.329 3.159,2.411 3.159,2.498 3.159,2.873 3.014,3.18 2.794,3.322 2.968,3.105 3.03,2.765 2.94,2.397 Z M 3.276,2.499 C 3.276,2.39 3.264,2.287 3.245,2.193 3.319,2.155 3.393,2.127 3.466,2.106 3.495,2.281 3.491,2.486 3.429,2.722 3.331,3.081 3.11,3.341 2.86,3.419 3.11,3.256 3.276,2.915 3.276,2.499 Z M 2.874,3.538 C 3.175,3.455 3.431,3.16 3.542,2.753 3.61,2.495 3.614,2.271 3.581,2.079 3.673,2.061 3.761,2.053 3.839,2.051 3.89,2.293 3.882,2.631 3.655,3.015 3.466,3.338 3.175,3.539 2.901,3.539 c -0.009,0 -0.017,0 -0.027,-0.001 z M 3.798,3.357 C 3.585,3.565 3.327,3.685 3.093,3.685 3.027,3.685 2.964,3.674 2.907,3.657 3.221,3.654 3.546,3.432 3.757,3.074 3.991,2.677 4.005,2.318 3.954,2.053 4.063,2.058 4.147,2.073 4.188,2.082 4.231,2.221 4.358,2.81 3.798,3.357 Z" />
    </g>
  </g>
</svg>
